<svg width="128" height="80" viewBox="0 0 128 80" fill="none" xmlns="http://www.w3.org/2000/svg">
<g clip-path="url(#clip0_2680_3955)">
<path d="M33.4529 48.4918C46.9018 48.4918 57.8043 37.6366 57.8043 24.2459C57.8043 10.8553 46.9018 0 33.4529 0C20.004 0 9.10156 10.8553 9.10156 24.2459C9.10156 37.6366 20.004 48.4918 33.4529 48.4918Z" fill="#F2F2F2"/>
<path d="M0 5.82153C0 14.6432 5.55829 21.7815 12.4273 21.7815L0 5.82153Z" fill="#2F2E41"/>
<path d="M12.4277 21.7816C12.4277 12.8609 18.6305 5.64233 26.2959 5.64233L12.4277 21.7816Z" fill="#7571BD"/>
<path d="M4.50195 6.62134C4.50195 15.0009 8.04637 21.7816 12.4266 21.7816L4.50195 6.62134Z" fill="#7571BD"/>
<path d="M12.4277 21.7816C12.4277 10.3829 19.5971 1.15918 28.4571 1.15918L12.4277 21.7816Z" fill="#2F2E41"/>
<path d="M9.8125 21.894C9.8125 21.894 11.5749 21.8399 12.106 21.4634C12.6372 21.0868 14.817 20.6371 14.9488 21.2411C15.0806 21.845 17.5973 24.2449 15.6076 24.2608C13.6179 24.2768 10.9844 23.9522 10.4542 23.6307C9.92412 23.3092 9.8125 21.894 9.8125 21.894Z" fill="#A8A8A8"/>
<path opacity="0.2" d="M15.6431 24.0507C13.6534 24.0667 11.0199 23.7422 10.4898 23.4206C10.086 23.1758 9.92516 22.2972 9.87134 21.8918C9.83406 21.8934 9.8125 21.8941 9.8125 21.8941C9.8125 21.8941 9.92413 23.3094 10.4542 23.6309C10.9844 23.9524 13.6179 24.277 15.6076 24.261C16.182 24.2564 16.3804 24.0529 16.3695 23.7516C16.2897 23.9336 16.0706 24.0473 15.6431 24.0507Z" fill="black"/>
<path d="M22.707 51.217C34.5142 51.217 44.0859 49.9205 44.0859 48.3211C44.0859 46.7218 34.5142 45.4253 22.707 45.4253C10.8998 45.4253 1.32812 46.7218 1.32812 48.3211C1.32812 49.9205 10.8998 51.217 22.707 51.217Z" fill="#3F3D56"/>
<path opacity="0.1" d="M22.7069 50.7524C32.62 50.7524 40.6561 49.6639 40.6561 48.3212C40.6561 46.9784 32.62 45.8899 22.7069 45.8899C12.7939 45.8899 4.75781 46.9784 4.75781 48.3212C4.75781 49.6639 12.7939 50.7524 22.7069 50.7524Z" fill="black"/>
<path d="M95.6452 79.5677C113.514 79.5677 127.999 77.6056 127.999 75.1852C127.999 72.7648 113.514 70.8027 95.6452 70.8027C77.7765 70.8027 63.291 72.7648 63.291 75.1852C63.291 77.6056 77.7765 79.5677 95.6452 79.5677Z" fill="#F2F2F2"/>
<path d="M35.5115 76.1101C46.2454 76.1101 54.9469 74.9315 54.9469 73.4776C54.9469 72.0236 46.2454 70.845 35.5115 70.845C24.7777 70.845 16.0762 72.0236 16.0762 73.4776C16.0762 74.9315 24.7777 76.1101 35.5115 76.1101Z" fill="#3F3D56"/>
<path d="M52.8887 71.2579C63.178 73.876 82.9563 67.843 85.1285 61.0132" stroke="#2F2E41" stroke-width="2" stroke-miterlimit="10"/>
<path d="M35.3965 29.4822C35.3965 29.4822 50.2588 25.3843 51.1734 38.5886C52.088 51.7929 38.9406 55.5494 49.2299 58.1675" stroke="#2F2E41" stroke-width="2" stroke-miterlimit="10"/>
<path d="M21.0371 61.1592C21.0371 61.1592 25.5041 59.9275 25.779 63.8962C26.0539 67.8648 22.1023 68.9938 25.1948 69.7807" stroke="#2F2E41" stroke-width="2" stroke-miterlimit="10"/>
<path d="M89.025 64.1139L88.1244 69.8391C88.1244 69.8391 83.6907 72.1843 86.8082 72.2533C89.9256 72.3222 104.612 72.2533 104.612 72.2533C104.612 72.2533 107.453 72.2533 102.95 69.7701L102.049 63.769L89.025 64.1139Z" fill="#2F2E41"/>
<path opacity="0.1" d="M86.182 72.1911C86.89 71.5639 88.1254 70.9103 88.1254 70.9103L89.026 65.1852L102.05 65.1974L102.951 70.8413C104.001 71.4204 104.651 71.8643 105.032 72.2048C105.61 72.0734 106.242 71.5852 102.951 69.7701L102.05 63.769L89.026 64.1139L88.1254 69.8391C88.1254 69.8391 84.3998 71.81 86.182 72.1911Z" fill="black"/>
<path d="M122.744 24.2104H68.192C67.0526 24.2104 66.1289 25.1301 66.1289 26.2646V62.853C66.1289 63.9875 67.0526 64.9071 68.192 64.9071H122.744C123.883 64.9071 124.807 63.9875 124.807 62.853V26.2646C124.807 25.1301 123.883 24.2104 122.744 24.2104Z" fill="#2F2E41"/>
<path d="M122.833 26.3833H68.1035V56.8713H122.833V26.3833Z" fill="#7571BD"/>
<path d="M95.4694 25.7625C95.6607 25.7625 95.8158 25.6081 95.8158 25.4176C95.8158 25.2272 95.6607 25.0728 95.4694 25.0728C95.2781 25.0728 95.123 25.2272 95.123 25.4176C95.123 25.6081 95.2781 25.7625 95.4694 25.7625Z" fill="#F2F2F2"/>
<path d="M124.807 59.2854V62.8529C124.807 63.1227 124.754 63.3898 124.65 63.639C124.546 63.8883 124.394 64.1147 124.203 64.3055C124.011 64.4962 123.784 64.6475 123.533 64.7508C123.283 64.854 123.015 64.9071 122.744 64.9071H68.192C67.9211 64.9071 67.6528 64.854 67.4024 64.7508C67.1521 64.6475 66.9247 64.4962 66.7331 64.3055C66.5415 64.1147 66.3895 63.8883 66.2859 63.639C66.1822 63.3898 66.1289 63.1227 66.1289 62.8529V59.2854H124.807Z" fill="#2F2E41"/>
<path d="M110.779 75.9781V76.6679H73.5078V76.116L73.5591 75.9781L74.4778 73.4949H110.017L110.779 75.9781Z" fill="#2F2E41"/>
<path d="M125.122 75.3028C125.054 75.5918 124.798 75.8967 124.218 76.185C122.14 77.2197 117.914 75.9091 117.914 75.9091C117.914 75.9091 114.658 75.3573 114.658 73.9088C114.75 73.8464 114.845 73.79 114.944 73.7398C115.817 73.2795 118.715 72.1437 123.852 73.7879C124.23 73.9061 124.568 74.1267 124.828 74.425C125.036 74.6676 125.199 74.9754 125.122 75.3028Z" fill="#2F2E41"/>
<path opacity="0.1" d="M125.122 75.3028C122.578 76.2733 120.31 76.3457 117.983 74.7365C116.81 73.9253 115.744 73.7246 114.943 73.7398C115.817 73.2795 118.714 72.1437 123.851 73.7879C124.23 73.9062 124.568 74.1267 124.828 74.425C125.036 74.6676 125.199 74.9754 125.122 75.3028Z" fill="black"/>
<path d="M121.932 74.7364C122.429 74.7364 122.832 74.6129 122.832 74.4605C122.832 74.3081 122.429 74.1846 121.932 74.1846C121.434 74.1846 121.031 74.3081 121.031 74.4605C121.031 74.6129 121.434 74.7364 121.932 74.7364Z" fill="#F2F2F2"/>
<path d="M95.4686 63.4241C96.1956 63.4241 96.7849 62.8374 96.7849 62.1136C96.7849 61.3897 96.1956 60.803 95.4686 60.803C94.7417 60.803 94.1523 61.3897 94.1523 62.1136C94.1523 62.8374 94.7417 63.4241 95.4686 63.4241Z" fill="#F2F2F2"/>
<path opacity="0.1" d="M110.779 75.978V76.6678H73.5078V76.116L73.5591 75.978H110.779Z" fill="black"/>
<path d="M36.1957 18.0991H12.416V45.6461H36.1957V18.0991Z" fill="#2F2E41"/>
<path d="M38.597 15.3672H10.0156V25.1566H38.597V15.3672Z" fill="#8F8DA2"/>
<path d="M38.597 26.9778H10.0156V36.7672H38.597V26.9778Z" fill="#8F8DA2"/>
<path d="M38.597 38.5886H10.0156V48.3781H38.597V38.5886Z" fill="#8F8DA2"/>
<path opacity="0.4" d="M32.8819 17.0747H31.0527V18.896H32.8819V17.0747Z" fill="#BAB5CA"/>
<path opacity="0.8" d="M35.5109 17.0747H33.6816V18.896H35.5109V17.0747Z" fill="#CCC5DC"/>
<path d="M38.1398 17.0747H36.3105V18.896H38.1398V17.0747Z" fill="#E9E6F0"/>
<path opacity="0.4" d="M32.8819 28.5715H31.0527V30.3928H32.8819V28.5715Z" fill="#BAB5CA"/>
<path opacity="0.8" d="M35.5109 28.5715H33.6816V30.3928H35.5109V28.5715Z" fill="#CCC5DC"/>
<path d="M38.1398 28.5715H36.3105V30.3928H38.1398V28.5715Z" fill="#E9E6F0"/>
<path opacity="0.4" d="M32.8819 40.0684H31.0527V41.8896H32.8819V40.0684Z" fill="#BAB5CA"/>
<path opacity="0.8" d="M35.5109 40.0684H33.6816V41.8896H35.5109V40.0684Z" fill="#CCC5DC"/>
<path d="M38.1398 40.0684H36.3105V41.8896H38.1398V40.0684Z" fill="#E9E6F0"/>
<path d="M36.1958 70.2335C41.1839 70.2335 45.2275 66.2074 45.2275 61.2409C45.2275 56.2744 41.1839 52.2483 36.1958 52.2483C31.2077 52.2483 27.1641 56.2744 27.1641 61.2409C27.1641 66.2074 31.2077 70.2335 36.1958 70.2335Z" fill="#2F2E41"/>
<path d="M34.8239 68.2983H32.0801V73.1931H34.8239V68.2983Z" fill="#2F2E41"/>
<path d="M40.3122 68.2983H37.5684V73.1931H40.3122V68.2983Z" fill="#2F2E41"/>
<path d="M34.3666 74.1037C35.6294 74.1037 36.6531 73.7215 36.6531 73.25C36.6531 72.7785 35.6294 72.3962 34.3666 72.3962C33.1038 72.3962 32.0801 72.7785 32.0801 73.25C32.0801 73.7215 33.1038 74.1037 34.3666 74.1037Z" fill="#2F2E41"/>
<path d="M39.8549 73.9899C41.1177 73.9899 42.1414 73.6077 42.1414 73.1362C42.1414 72.6647 41.1177 72.2825 39.8549 72.2825C38.5921 72.2825 37.5684 72.6647 37.5684 73.1362C37.5684 73.6077 38.5921 73.9899 39.8549 73.9899Z" fill="#2F2E41"/>
<path d="M36.4247 62.0377C38.1295 62.0377 39.5115 60.6617 39.5115 58.9643C39.5115 57.2669 38.1295 55.8909 36.4247 55.8909C34.7199 55.8909 33.3379 57.2669 33.3379 58.9643C33.3379 60.6617 34.7199 62.0377 36.4247 62.0377Z" fill="white"/>
<path d="M36.4254 59.9886C36.9937 59.9886 37.4543 59.53 37.4543 58.9642C37.4543 58.3984 36.9937 57.9397 36.4254 57.9397C35.8572 57.9397 35.3965 58.3984 35.3965 58.9642C35.3965 59.53 35.8572 59.9886 36.4254 59.9886Z" fill="#3F3D56"/>
<path d="M27.4363 52.8779C26.707 49.626 29.0382 46.3402 32.6431 45.5387C36.248 44.7372 39.7616 46.7237 40.4909 49.9755C41.2201 53.2274 38.831 54.4267 35.2261 55.2282C31.6212 56.0297 28.1655 56.1298 27.4363 52.8779Z" fill="#7571BD"/>
<path d="M44.6676 59.4472C46.9605 58.4701 48.5695 57.097 48.2614 56.3804C47.9533 55.6637 45.8448 55.8748 43.552 56.8519C41.2591 57.829 39.6501 59.2021 39.9582 59.9188C40.2663 60.6354 42.3748 60.4243 44.6676 59.4472Z" fill="#2F2E41"/>
<path d="M27.7477 65.4804C30.0406 64.5033 31.6495 63.1302 31.3415 62.4136C31.0334 61.6969 28.9249 61.908 26.6321 62.8851C24.3392 63.8622 22.7302 65.2353 23.0383 65.952C23.3464 66.6686 25.4548 66.4575 27.7477 65.4804Z" fill="#2F2E41"/>
<path d="M41.456 63.859C41.456 64.7392 39.1799 66.4771 36.6543 66.4771C34.1287 66.4771 31.7383 64.853 31.7383 63.9729C31.7383 63.0927 34.1287 63.2899 36.6543 63.2899C39.1799 63.2899 41.456 62.9789 41.456 63.859Z" fill="white"/>
</g>
<defs>
<clipPath id="clip0_2680_3955">
<rect width="128" height="79.5676" fill="white"/>
</clipPath>
</defs>
</svg>
