<svg width="128" height="105" viewBox="0 0 128 105" fill="none" xmlns="http://www.w3.org/2000/svg">
<path d="M49.0913 24.4319C49.034 24.4318 48.9788 24.41 48.937 24.371C48.8951 24.3319 48.8696 24.2784 48.8656 24.2212C48.7175 22.2088 47.815 20.3266 46.3387 18.9511C44.8624 17.5756 42.9211 16.8084 40.9034 16.803C40.6619 16.803 40.4083 16.8153 40.1494 16.8395C40.1061 16.8436 40.0626 16.8351 40.024 16.8151C39.9854 16.795 39.9534 16.7643 39.9318 16.7266C39.0049 15.1042 37.6209 13.7907 35.9523 12.95C34.2837 12.1093 32.4045 11.7787 30.5491 11.9993C28.6938 12.22 26.9446 12.9822 25.5197 14.1909C24.0948 15.3995 23.0574 17.001 22.537 18.7955C22.5232 18.8436 22.4939 18.8858 22.4536 18.9154C22.4132 18.9449 22.3642 18.9603 22.3142 18.959L22.254 18.9571C22.2227 18.9561 22.1914 18.955 22.1598 18.955C20.6294 18.9598 19.1466 19.4877 17.9575 20.4512C16.7684 21.4147 15.9445 22.7559 15.6224 24.2521C15.6117 24.3029 15.5838 24.3486 15.5435 24.3813C15.5031 24.414 15.4527 24.4319 15.4008 24.4319H0.225909C0.165939 24.4317 0.10848 24.4078 0.0661316 24.3653C0.0237827 24.3229 0 24.2653 0 24.2054C0 24.1454 0.0237827 24.0879 0.0661316 24.0454C0.10848 24.0029 0.165939 23.979 0.225909 23.9788H15.2195C15.5969 22.4225 16.4848 21.0375 17.7413 20.0448C18.9978 19.0521 20.5507 18.5089 22.152 18.5019C22.722 16.6578 23.8154 15.019 25.2991 13.7845C26.7828 12.5499 28.5931 11.7729 30.5101 11.5478C32.427 11.3226 34.3681 11.659 36.0974 12.5162C37.8268 13.3733 39.2701 14.7142 40.2519 16.3761C40.4747 16.3587 40.6932 16.35 40.9034 16.35C43.0357 16.3557 45.0871 17.1666 46.6472 18.6201C48.2073 20.0737 49.161 22.0628 49.3175 24.1895C49.3196 24.2192 49.3158 24.249 49.3063 24.2772C49.2969 24.3054 49.282 24.3315 49.2625 24.3539C49.243 24.3764 49.2192 24.3948 49.1926 24.4081C49.166 24.4213 49.137 24.4293 49.1074 24.4313C49.102 24.4317 49.0966 24.4319 49.0913 24.4319Z" fill="#CBCBCB"/>
<path d="M46.3974 27.3363H9.24994C9.18987 27.3363 9.13226 27.3125 9.08978 27.27C9.0473 27.2275 9.02344 27.1699 9.02344 27.1098C9.02344 27.0497 9.0473 26.9921 9.08978 26.9496C9.13226 26.9072 9.18987 26.8833 9.24994 26.8833H46.3974C46.4575 26.8833 46.5151 26.9072 46.5576 26.9496C46.6 26.9921 46.6239 27.0497 46.6239 27.1098C46.6239 27.1699 46.6 27.2275 46.5576 27.27C46.5151 27.3125 46.4575 27.3363 46.3974 27.3363Z" fill="#CBCBCB"/>
<path d="M18.3101 30.621H5.85211C5.82231 30.6211 5.7928 30.6153 5.76524 30.6039C5.73769 30.5926 5.71265 30.5759 5.69155 30.5549C5.67046 30.5338 5.65372 30.5088 5.6423 30.4813C5.63088 30.4538 5.625 30.4243 5.625 30.3945C5.625 30.3647 5.63088 30.3352 5.6423 30.3077C5.65372 30.2801 5.67046 30.2551 5.69155 30.2341C5.71265 30.2131 5.73769 30.1964 5.76524 30.185C5.7928 30.1737 5.82231 30.1679 5.85211 30.168H18.3101C18.3701 30.1681 18.4275 30.1921 18.4699 30.2345C18.5122 30.277 18.536 30.3345 18.536 30.3945C18.536 30.4545 18.5122 30.512 18.4699 30.5545C18.4275 30.5969 18.3701 30.6209 18.3101 30.621Z" fill="#CBCBCB"/>
<path d="M127.608 74.696C127.608 83.9053 117.954 88.3119 117.954 88.3119C117.954 88.3119 108.2 83.9053 108.002 74.696C107.886 69.283 112.391 64.8926 117.805 64.8926C119.092 64.8926 120.367 65.1461 121.556 65.6388C122.746 66.1315 123.826 66.8536 124.737 67.7639C125.647 68.6743 126.369 69.755 126.862 70.9444C127.354 72.1338 127.608 73.4086 127.608 74.696Z" fill="#E5E5E5"/>
<path d="M121.222 88.8565H114.687L113.895 85.6877H122.014L121.222 88.8565Z" fill="#CBCBCB"/>
<path d="M120.998 94.2756H114.908V97.4493H120.998V94.2756Z" fill="white"/>
<path d="M121.048 97.4988H114.859V94.2261H121.048V97.4988ZM114.958 97.3997H120.949V94.3251H114.958V97.3997Z" fill="#CBCBCB"/>
<path d="M119.201 89.2303H116.704L116.418 88.78H119.488L119.201 89.2303Z" fill="#CBCBCB"/>
<path d="M114.835 88.8564H114.736V93.7086H114.835V88.8564Z" fill="#CBCBCB"/>
<path d="M121.171 88.8564H121.072V93.7086H121.171V88.8564Z" fill="#CBCBCB"/>
<path d="M118.945 85.6342L118.885 85.5557C121.745 83.3497 125.155 79.5703 125.155 74.0935C125.158 72.1753 124.593 70.2992 123.534 68.7003C122.474 67.1015 120.966 65.8511 119.198 65.1061L119.237 65.0149C121.022 65.7675 122.546 67.0305 123.616 68.6456C124.687 70.2606 125.257 72.1558 125.254 74.0935C125.254 79.6105 121.823 83.4145 118.945 85.6342Z" fill="#CBCBCB"/>
<path d="M115.777 85.6342L115.717 85.5558C118.577 83.3497 121.987 79.5703 121.987 74.0935C121.988 72.1882 121.431 70.3244 120.384 68.7324C119.338 67.1403 117.848 65.8897 116.098 65.1351L116.137 65.0442C117.905 65.8065 119.41 67.0698 120.467 68.678C121.524 70.2862 122.087 72.1689 122.086 74.0935C122.086 79.6106 118.655 83.4146 115.777 85.6342Z" fill="#CBCBCB"/>
<path d="M119.832 85.634C116.954 83.4143 113.523 79.6104 113.523 74.0933C113.523 72.1687 114.086 70.286 115.143 68.6777C116.2 67.0695 117.705 65.8062 119.472 65.0439L119.512 65.1349C117.762 65.8895 116.272 67.1401 115.226 68.7321C114.179 70.3242 113.622 72.188 113.622 74.0933C113.622 79.5701 117.032 83.3495 119.893 85.5555L119.832 85.634Z" fill="#CBCBCB"/>
<path d="M116.665 85.634C113.786 83.4143 110.355 79.6104 110.355 74.0933C110.352 72.148 110.926 70.2455 112.004 68.6264C113.083 67.0074 114.617 65.7446 116.413 64.9978L116.451 65.0892C114.673 65.8285 113.154 67.0786 112.087 68.6814C111.019 70.2841 110.451 72.1676 110.454 74.0933C110.454 79.5702 113.864 83.3495 116.725 85.5555L116.665 85.634Z" fill="#CBCBCB"/>
<path d="M116.689 93.5562L114.873 95.3721L114.943 95.4421L116.759 93.6263L116.689 93.5562Z" fill="#CBCBCB"/>
<path d="M117.572 93.5259L114.873 96.3647L114.945 96.433L117.644 93.5941L117.572 93.5259Z" fill="#CBCBCB"/>
<path d="M121.567 93.5603H114.141V94.4515H121.567V93.5603Z" fill="white"/>
<path d="M121.617 94.501H114.092V93.5107H121.617V94.501ZM114.191 94.402H121.518V93.6098H114.191V94.402Z" fill="#CBCBCB"/>
<path d="M31.6413 51.3569C31.6413 57.4354 25.269 60.344 25.269 60.344C25.269 60.344 18.8314 57.4354 18.7007 51.3569C18.6238 47.7841 21.5975 44.8862 25.171 44.8862C26.887 44.8862 28.5328 45.568 29.7462 46.7815C30.9596 47.9949 31.6413 49.6408 31.6413 51.3569Z" fill="#E5E5E5"/>
<path d="M27.4262 60.7034H23.1126L22.5898 58.6118H27.9491L27.4262 60.7034Z" fill="#CBCBCB"/>
<path d="M27.2792 64.2803H23.2598V66.375H27.2792V64.2803Z" fill="white"/>
<path d="M27.3114 66.4079H23.2266V64.2478H27.3114V66.4079ZM23.2919 66.3426H27.246V64.3131H23.2919V66.3426Z" fill="#CBCBCB"/>
<path d="M26.0928 60.95H24.4449L24.2559 60.6528H26.2819L26.0928 60.95Z" fill="#CBCBCB"/>
<path d="M23.2099 60.7036H23.1445V63.9063H23.2099V60.7036Z" fill="#CBCBCB"/>
<path d="M27.3935 60.7036H27.3281V63.9063H27.3935V60.7036Z" fill="#CBCBCB"/>
<path d="M25.9247 58.5764L25.8848 58.5247C27.7729 57.0686 30.0236 54.574 30.0236 50.9591C30.0251 49.693 29.6527 48.4546 28.9533 47.3993C28.2538 46.344 27.2583 45.5187 26.0917 45.027L26.1172 44.9668C27.2957 45.4635 28.3012 46.2972 29.0078 47.3632C29.7143 48.4292 30.0904 49.6801 30.0889 50.9591C30.0889 54.6006 27.8244 57.1113 25.9247 58.5764Z" fill="#CBCBCB"/>
<path d="M23.8329 58.5766L23.793 58.5249C25.6811 57.0688 27.9318 54.5742 27.9318 50.9593C27.9323 49.7017 27.5644 48.4715 26.8736 47.4207C26.1829 46.3699 25.1994 45.5444 24.0447 45.0463L24.0706 44.9863C25.237 45.4895 26.2305 46.3233 26.9283 47.3848C27.6261 48.4463 27.9977 49.6889 27.9971 50.9593C27.9971 54.6008 25.7326 57.1116 23.8329 58.5766Z" fill="#CBCBCB"/>
<path d="M26.5099 58.5766C24.6102 57.1116 22.3457 54.6008 22.3457 50.9593C22.3452 49.689 22.7168 48.4463 23.4146 47.3848C24.1124 46.3233 25.1059 45.4895 26.2722 44.9863L26.2982 45.0463C25.1435 45.5444 24.16 46.3699 23.4692 47.4207C22.7784 48.4715 22.4105 49.7017 22.411 50.9593C22.411 54.5742 24.6618 57.0688 26.5498 58.5249L26.5099 58.5766Z" fill="#CBCBCB"/>
<path d="M24.4182 58.5766C22.5185 57.1115 20.2539 54.6008 20.2539 50.9592C20.2518 49.6753 20.6305 48.4195 21.3422 47.3509C22.054 46.2822 23.0666 45.4487 24.2522 44.9558L24.2774 45.0161C23.1037 45.5041 22.1012 46.3292 21.3967 47.3871C20.6921 48.445 20.3172 49.6882 20.3193 50.9592C20.3193 54.5742 22.57 57.0687 24.4581 58.5248L24.4182 58.5766Z" fill="#CBCBCB"/>
<path d="M25.204 44.8862H25.1387V58.6119H25.204V44.8862Z" fill="#CBCBCB"/>
<path d="M24.4348 63.8054L23.2363 65.0039L23.2825 65.0501L24.481 63.8516L24.4348 63.8054Z" fill="#CBCBCB"/>
<path d="M25.0178 63.7854L23.2363 65.6592L23.2837 65.7042L25.0652 63.8304L25.0178 63.7854Z" fill="#CBCBCB"/>
<path d="M27.6537 63.8081H22.752V64.3963H27.6537V63.8081Z" fill="white"/>
<path d="M27.6878 64.429H22.7207V63.7754H27.6878V64.429ZM22.7861 64.3636H27.6224V63.8407H22.7861V64.3636Z" fill="#CBCBCB"/>
<path d="M85.811 59.6675C85.852 59.6674 85.8916 59.6518 85.9216 59.6238C85.9516 59.5958 85.9699 59.5575 85.9728 59.5165C86.0789 58.074 86.7258 56.7249 87.784 55.7389C88.8422 54.753 90.2337 54.2031 91.6799 54.1992C91.853 54.1992 92.0348 54.208 92.2204 54.2254C92.2514 54.2283 92.2826 54.2222 92.3103 54.2078C92.338 54.1935 92.3609 54.1715 92.3764 54.1444C93.0407 52.9815 94.0328 52.04 95.2289 51.4374C96.4249 50.8348 97.7719 50.5978 99.1017 50.756C100.432 50.9142 101.685 51.4605 102.707 52.3268C103.728 53.1932 104.472 54.3411 104.845 55.6274C104.855 55.6619 104.876 55.6921 104.905 55.7133C104.933 55.7345 104.969 55.7455 105.004 55.7446L105.048 55.7432C105.07 55.7425 105.092 55.7417 105.115 55.7417C106.212 55.7451 107.275 56.1236 108.127 56.8142C108.98 57.5048 109.57 58.4661 109.801 59.5386C109.809 59.5751 109.829 59.6077 109.858 59.6312C109.887 59.6547 109.923 59.6675 109.96 59.6675H120.837C120.858 59.6675 120.88 59.6634 120.899 59.6553C120.919 59.6471 120.937 59.6352 120.952 59.6201C120.967 59.605 120.979 59.5871 120.988 59.5674C120.996 59.5476 121 59.5265 121 59.5051C121 59.4837 120.996 59.4626 120.988 59.4429C120.979 59.4231 120.967 59.4052 120.952 59.3901C120.937 59.375 120.919 59.3631 120.899 59.355C120.88 59.3468 120.858 59.3427 120.837 59.3427H110.09C109.819 58.2272 109.183 57.2344 108.282 56.5229C107.382 55.8113 106.269 55.422 105.121 55.417C104.712 54.0951 103.928 52.9204 102.865 52.0355C101.801 51.1507 100.504 50.5937 99.1297 50.4323C97.7557 50.2709 96.3644 50.5121 95.1248 51.1264C93.8852 51.7408 92.8507 52.702 92.1469 53.8932C91.9872 53.8807 91.8306 53.8745 91.6799 53.8745C90.1515 53.8786 88.6811 54.4598 87.5628 55.5017C86.4446 56.5436 85.761 57.9694 85.6488 59.4937C85.6473 59.515 85.65 59.5364 85.6568 59.5566C85.6636 59.5768 85.6742 59.5955 85.6882 59.6116C85.7022 59.6277 85.7192 59.6409 85.7383 59.6504C85.7574 59.6599 85.7782 59.6656 85.7994 59.6671C85.8033 59.6674 85.8072 59.6675 85.811 59.6675Z" fill="#CBCBCB"/>
<path d="M87.7424 61.7493H114.369C114.412 61.7493 114.454 61.7322 114.484 61.7017C114.515 61.6713 114.532 61.63 114.532 61.5869C114.532 61.5439 114.515 61.5026 114.484 61.4721C114.454 61.4417 114.412 61.4246 114.369 61.4246H87.7424C87.6994 61.4246 87.6581 61.4417 87.6276 61.4721C87.5972 61.5026 87.5801 61.5439 87.5801 61.5869C87.5801 61.63 87.5972 61.6713 87.6276 61.7017C87.6581 61.7322 87.6994 61.7493 87.7424 61.7493Z" fill="#CBCBCB"/>
<path d="M107.875 64.1035H116.805C116.848 64.1034 116.889 64.0862 116.919 64.0558C116.95 64.0254 116.967 63.9842 116.967 63.9412C116.967 63.8982 116.95 63.857 116.919 63.8265C116.889 63.7961 116.848 63.7789 116.805 63.7788H107.875C107.854 63.7788 107.833 63.783 107.813 63.7912C107.793 63.7993 107.776 63.8113 107.76 63.8264C107.745 63.8414 107.733 63.8593 107.725 63.879C107.717 63.8987 107.713 63.9199 107.713 63.9412C107.713 63.9625 107.717 63.9836 107.725 64.0033C107.733 64.023 107.745 64.0409 107.76 64.056C107.776 64.0711 107.793 64.083 107.813 64.0912C107.833 64.0993 107.854 64.1035 107.875 64.1035Z" fill="#CBCBCB"/>
<path d="M66.3826 103.281H65.848L65.5938 101.219H66.3826V103.281Z" fill="#9F616A"/>
<path d="M66.5182 103.799H64.7949V103.777C64.7951 103.599 64.8659 103.429 64.9916 103.303C65.1174 103.177 65.2878 103.107 65.4657 103.106H66.5182V103.799Z" fill="#2F2E41"/>
<path d="M73.273 102.268L72.8148 102.544L71.5352 100.907L72.2113 100.501L73.273 102.268Z" fill="#9F616A"/>
<path d="M72.179 103.53L72.1678 103.511C72.0764 103.359 72.0492 103.176 72.0922 103.003C72.1352 102.831 72.245 102.682 72.3973 102.591L73.2995 102.049L73.6561 102.642L72.179 103.53Z" fill="#2F2E41"/>
<path d="M66.5199 102.856L66.5106 102.856C66.2507 102.855 65.9909 102.84 65.7326 102.811C65.6341 102.801 65.5272 102.79 65.3985 102.78L65.3941 102.779C65.3063 102.753 65.3039 101.929 65.3411 99.1102C65.3602 97.6662 65.3818 96.0297 65.3561 94.9874L65.3558 94.9772L65.3635 94.9704C65.8284 94.5629 66.3831 94.2711 66.9822 94.119C67.5814 93.9669 68.208 93.9587 68.811 94.0951L68.8204 94.0971L68.8253 94.1054C69.3505 94.9942 70.1436 96.2744 70.9105 97.5125C72.6711 100.355 73.1747 101.19 73.1195 101.254L73.1128 101.259C72.9926 101.319 72.9023 101.365 72.8256 101.404C72.5218 101.562 72.2098 101.702 71.8908 101.826L71.8767 101.832L71.8664 101.821C70.08 99.863 68.5934 97.6762 67.6739 95.6547C67.5664 96.3448 67.436 97.246 67.2982 98.1982C66.9019 100.936 66.6341 102.739 66.5263 102.849L66.5199 102.856Z" fill="#2F2E41"/>
<path d="M67.0017 95.1982C68.0669 95.1934 69.1251 95.3706 70.1307 95.722C70.1657 94.0338 69.5999 92.388 68.5341 91.0783L68.5262 91.0688L68.5302 91.0572C68.8108 90.2463 69.1009 89.4082 69.3601 88.5742L69.3561 88.5602C69.1744 87.914 68.7842 87.2609 68.1634 86.5637C68.0961 86.494 68.0047 86.4524 67.9079 86.4475C67.811 86.4426 67.7159 86.4747 67.6419 86.5373C67.098 87.0347 66.6743 87.6494 66.4031 88.3347C66.1318 89.02 66.02 89.7581 66.0761 90.4931L66.0765 90.4973L66.0753 90.5013C65.5892 92.1483 65.4127 92.9942 65.257 93.7406C65.1434 94.285 65.0451 94.7565 64.8477 95.4301C65.5553 95.2761 66.2775 95.1983 67.0017 95.1982Z" fill="#CBCBCB"/>
<path opacity="0.1" d="M68.5708 89.9917L66.9894 93.4347L66.0859 92.5201L68.5708 89.9917Z" fill="black"/>
<path d="M67.8946 86.2286C68.516 86.2286 69.0197 85.7249 69.0197 85.1034C69.0197 84.482 68.516 83.9783 67.8946 83.9783C67.2733 83.9783 66.7695 84.482 66.7695 85.1034C66.7695 85.7249 67.2733 86.2286 67.8946 86.2286Z" fill="#9F616A"/>
<path d="M66.5293 84.4677H68.3158V83.6889C67.9237 83.5331 67.54 83.4006 67.308 83.6889C67.1015 83.6889 66.9034 83.7709 66.7574 83.917C66.6113 84.063 66.5293 84.2611 66.5293 84.4677Z" fill="#2F2E41"/>
<path d="M68.4158 83.5515C69.4838 83.5515 69.7827 84.8903 69.7827 85.6456C69.7827 86.0668 69.5922 86.2174 69.2929 86.2684L69.1872 85.7046L68.9396 86.2927C68.8555 86.2931 68.7672 86.2915 68.6756 86.2898L68.5917 86.1169L68.4045 86.2867C67.6548 86.2878 67.0488 86.3971 67.0488 85.6456C67.0488 84.8903 67.311 83.5515 68.4158 83.5515Z" fill="#2F2E41"/>
<path d="M100.675 31.5694C100.675 61.2255 69.5861 75.4158 69.5861 75.4158C69.5861 75.4158 38.178 61.2255 37.5403 31.5694C37.1655 14.1381 51.6736 0 69.1078 0C86.5421 0 100.675 14.1341 100.675 31.5694Z" fill="#7571BD"/>
<path d="M70.2523 103.048H69.5968L69.2852 100.52H70.2523V103.048Z" fill="#FFB7B7"/>
<path d="M69.1297 102.861H70.3935V103.657H68.334C68.334 103.552 68.3546 103.449 68.3946 103.352C68.4345 103.256 68.4932 103.168 68.5671 103.094C68.6409 103.02 68.7287 102.961 68.8252 102.921C68.9218 102.881 69.0252 102.861 69.1297 102.861Z" fill="#2F2E41"/>
<path d="M72.7113 103.048H72.056L71.7441 100.52H72.7114L72.7113 103.048Z" fill="#FFB7B7"/>
<path d="M71.5887 102.861H72.8525V103.657H70.793C70.793 103.446 70.8768 103.243 71.026 103.094C71.1753 102.945 71.3777 102.861 71.5887 102.861Z" fill="#2F2E41"/>
<path d="M72.6316 95.5195C72.561 95.4741 72.5012 95.4138 72.4564 95.3427C72.4117 95.2717 72.383 95.1917 72.3725 95.1085C72.362 95.0252 72.3699 94.9406 72.3956 94.8607C72.4213 94.7808 72.4642 94.7074 72.5213 94.6459L72.0898 88.5222L73.3328 88.6428L73.3669 94.6397C73.4639 94.7425 73.5198 94.8773 73.5241 95.0186C73.5284 95.1599 73.4806 95.2978 73.39 95.4063C73.2994 95.5147 73.1721 95.5861 73.0323 95.607C72.8925 95.6279 72.7499 95.5968 72.6316 95.5195Z" fill="#FFB7B7"/>
<path d="M70.2216 101.775L69.5002 101.74C69.4387 101.737 69.3807 101.711 69.3381 101.667C69.2955 101.622 69.2715 101.563 69.2711 101.502L69.2207 94.202C69.2205 94.1673 69.2277 94.133 69.242 94.1014C69.2562 94.0698 69.2771 94.0417 69.3032 94.0189C69.3293 93.9962 69.3601 93.9793 69.3933 93.9695C69.4266 93.9597 69.4615 93.9572 69.4958 93.9622L72.3819 94.3812C72.4389 94.3892 72.4911 94.4175 72.529 94.4609C72.5668 94.5043 72.5877 94.5599 72.5879 94.6174L72.959 101.381C72.9593 101.413 72.9532 101.445 72.9413 101.474C72.9293 101.503 72.9116 101.53 72.8892 101.553C72.8669 101.575 72.8403 101.593 72.811 101.605C72.7817 101.617 72.7503 101.624 72.7185 101.624H71.9408C71.8834 101.624 71.8278 101.604 71.7842 101.566C71.7406 101.529 71.7118 101.477 71.7032 101.421C71.7032 101.421 71.1157 96.347 71.0351 96.35C70.954 96.3515 70.4718 101.563 70.4718 101.563C70.4647 101.621 70.4364 101.675 70.3925 101.714C70.3485 101.753 70.2918 101.775 70.233 101.775C70.2292 101.775 70.2254 101.775 70.2216 101.775Z" fill="#2F2E41"/>
<path d="M72.3711 90.5799C72.342 90.5589 72.318 90.5317 72.3008 90.5003C72.2836 90.4688 72.2737 90.4339 72.2718 90.3981L72.1807 88.7476C72.1717 88.5841 72.2235 88.423 72.3262 88.2954C72.4289 88.1679 72.5752 88.0829 72.7369 88.0568C72.8986 88.0307 73.0642 88.0654 73.2018 88.1542C73.3393 88.243 73.4392 88.3796 73.4821 88.5377L73.8821 90.0133C73.8987 90.0749 73.8903 90.1405 73.8585 90.1959C73.8268 90.2512 73.7744 90.2917 73.7129 90.3084L72.5749 90.617C72.5403 90.6264 72.504 90.628 72.4688 90.6216C72.4335 90.6152 72.4001 90.6009 72.3711 90.5799Z" fill="#3F3D56"/>
<path d="M71.3089 86.6573C72.034 86.6573 72.6218 86.0695 72.6218 85.3444C72.6218 84.6193 72.034 84.0315 71.3089 84.0315C70.5839 84.0315 69.9961 84.6193 69.9961 85.3444C69.9961 86.0695 70.5839 86.6573 71.3089 86.6573Z" fill="#FFB7B7"/>
<path d="M72.2381 86.3832C72.1832 86.4423 72.1125 86.4846 72.0345 86.5051C71.9564 86.5255 71.874 86.5232 71.7972 86.4984C71.7204 86.4737 71.6522 86.4275 71.6007 86.3654C71.5492 86.3032 71.5165 86.2277 71.5064 86.1476C71.5039 86.1199 71.5041 86.092 71.507 86.0644C71.5234 85.9065 71.6147 85.7632 71.5928 85.5965C71.5879 85.555 71.5724 85.5155 71.5479 85.4816C71.3527 85.2203 70.8946 85.5985 70.7104 85.3619C70.5975 85.2168 70.7302 84.9884 70.6435 84.8263C70.5292 84.6123 70.1903 84.7178 69.9779 84.6006C69.7415 84.4702 69.7556 84.1075 69.9112 83.8868C70.0125 83.7565 70.1413 83.6501 70.2884 83.5752C70.4355 83.5003 70.5974 83.4587 70.7624 83.4535C71.0927 83.4457 71.4209 83.5098 71.7241 83.6412C72.0822 83.7577 72.3982 83.9768 72.6328 84.2713C72.7542 84.4644 72.8311 84.6822 72.858 84.9087C72.8849 85.1352 72.8611 85.3649 72.7883 85.5811C72.7089 85.8462 72.4381 86.1701 72.2381 86.3832Z" fill="#2F2E41"/>
<path d="M72.6193 87.5342C72.5965 87.5178 72.5732 87.5017 72.5495 87.4859C72.4235 87.4021 72.287 87.3352 72.1435 87.2869V86.9419H71.1279V87.262C70.7913 87.3548 70.4893 87.5446 70.2597 87.8078C70.0301 88.0709 69.8829 88.3958 69.8364 88.7419L69.1448 93.8763C69.1404 93.9084 69.1425 93.9411 69.1511 93.9723C69.1596 94.0036 69.1744 94.0328 69.1946 94.0582C69.2143 94.0833 69.239 94.1042 69.267 94.1196C69.2951 94.135 69.326 94.1445 69.3578 94.1476C69.8423 94.2103 70.3092 94.3703 70.7304 94.6178C71.0363 94.7872 71.3806 94.8751 71.7303 94.873C72.0079 94.8719 72.2832 94.8229 72.5441 94.7281C72.5884 94.7118 72.6268 94.6827 72.6545 94.6446C72.6823 94.6065 72.6982 94.5611 72.7001 94.514C72.725 93.9614 72.8706 91.1172 73.2947 89.3823C73.3771 89.042 73.357 88.6849 73.2368 88.356C73.1166 88.0271 72.9017 87.7412 72.6193 87.5342Z" fill="#3F3D56"/>
<path d="M80.1077 77.1696H59.0626L56.5117 66.9653H82.6586L80.1077 77.1696Z" fill="#3F3D56"/>
<path d="M79.3914 94.6206H59.7812V104.841H79.3914V94.6206Z" fill="white"/>
<path d="M79.5501 105H59.6211V94.4612H79.5501V105ZM59.94 104.681H79.2312V94.7801H59.94V104.681Z" fill="#3F3D56"/>
<path d="M73.6067 78.3728H65.5672L64.6445 76.9229H74.5293L73.6067 78.3728Z" fill="#3F3D56"/>
<path d="M59.5415 77.1697H59.2227V92.7949H59.5415V77.1697Z" fill="#3F3D56"/>
<path d="M79.9497 77.1697H79.6309V92.7949H79.9497V77.1697Z" fill="#3F3D56"/>
<path d="M72.7826 66.7926L72.5879 66.5401C81.7996 59.436 92.7804 47.2655 92.7804 29.6289C92.7877 23.4518 90.9712 17.4101 87.5586 12.2615C84.1461 7.11281 79.2894 3.0864 73.5977 0.687212L73.7219 0.393555C79.4714 2.81709 84.3773 6.88436 87.8245 12.0853C91.2717 17.2862 93.1067 23.3892 93.0992 29.6289C93.0992 47.395 82.0509 59.6448 72.7826 66.7926Z" fill="#3F3D56"/>
<path d="M62.5775 66.7927L62.3828 66.5401C71.5946 59.436 82.5754 47.2655 82.5754 29.6288C82.5779 23.4933 80.7832 17.4915 77.4129 12.3647C74.0426 7.23787 69.2445 3.21067 63.6111 0.780517L63.7376 0.487793C69.4281 2.9426 74.2749 7.01067 77.6794 12.1895C81.0838 17.3683 82.8968 23.4311 82.8943 29.6288C82.8943 47.3951 71.8459 59.6449 62.5775 66.7927Z" fill="#3F3D56"/>
<path d="M75.637 66.7927C66.3686 59.6449 55.3203 47.3951 55.3203 29.6289C55.3178 23.4311 57.1307 17.3683 60.5353 12.1895C63.9398 7.01061 68.7867 2.94255 74.4773 0.487793L74.6037 0.780516C68.9703 3.21063 64.1721 7.23782 60.8018 12.3647C57.4314 17.4915 55.6367 23.4934 55.6392 29.6289C55.6392 47.2655 66.6199 59.436 75.8317 66.5401L75.637 66.7927Z" fill="#3F3D56"/>
<path d="M65.4339 66.7926C56.1655 59.6448 45.1172 47.3952 45.1172 29.6288C45.1068 23.3645 46.9547 17.2379 50.427 12.0242C53.8993 6.81046 58.84 2.74392 64.624 0.339111L64.7469 0.633392C59.0211 3.01402 54.13 7.0397 50.6925 12.2011C47.2551 17.3624 45.4258 23.4275 45.4361 29.6288C45.4361 47.2656 56.4169 59.436 65.6286 66.5401L65.4339 66.7926Z" fill="#3F3D56"/>
<path d="M69.2681 0H68.9492V66.9654H69.2681V0Z" fill="#3F3D56"/>
<path d="M65.515 92.3035L59.668 98.1509L59.8934 98.3763L65.7404 92.529L65.515 92.3035Z" fill="#3F3D56"/>
<path d="M68.3577 92.2062L59.666 101.348L59.8971 101.568L68.5888 92.4259L68.3577 92.2062Z" fill="#3F3D56"/>
<path d="M81.2253 92.3167H57.3105V95.1866H81.2253V92.3167Z" fill="white"/>
<path d="M81.3841 95.3461H57.1504V92.1572H81.3841V95.3461ZM57.4693 95.0272H81.0652V92.4761H57.4693V95.0272Z" fill="#3F3D56"/>
<path d="M65.0445 93.6513C65.1084 93.6468 65.1706 93.6284 65.2266 93.5973C65.2827 93.5663 65.3312 93.5233 65.3689 93.4714C65.4065 93.4195 65.4323 93.36 65.4444 93.2971C65.4566 93.2342 65.4548 93.1694 65.4392 93.1072L66.7422 92.2534L65.9991 91.9324L64.8757 92.7923C64.773 92.8255 64.686 92.8951 64.6313 92.9881C64.5765 93.0811 64.5578 93.1909 64.5786 93.2968C64.5994 93.4027 64.6583 93.4972 64.7442 93.5626C64.8301 93.6279 64.9369 93.6595 65.0445 93.6513Z" fill="#9F616A"/>
<path d="M66.2991 93.0363L66.2827 93.0246C65.9726 92.7964 65.6283 92.5603 65.2954 92.3321L65.2754 92.3183L65.2911 92.2999C66.0018 91.4684 66.7131 90.6 67.4012 89.7598L67.3999 89.7568L67.4064 89.7535L67.4091 89.7501L67.4106 89.7514L67.4147 89.7493L67.396 89.7507L67.1839 88.0874C67.0789 87.9145 67.0253 87.7152 67.0294 87.5129C67.0334 87.3106 67.0949 87.1137 67.2067 86.945C67.3354 86.7631 67.5267 86.6351 67.7439 86.5854C67.9612 86.5358 68.1891 86.5682 68.384 86.6762C68.4802 86.7408 68.5606 86.8262 68.6193 86.926C68.6781 87.0259 68.7136 87.1377 68.7232 87.2532C68.7369 87.356 68.7274 87.4606 68.6954 87.5593C68.6635 87.658 68.6099 87.7484 68.5385 87.8237C68.6119 88.6309 68.6442 89.4413 68.6355 90.2518L68.6355 90.2594L68.6308 90.2656C67.8973 91.1976 67.0915 92.1246 66.3123 93.0211L66.2991 93.0363Z" fill="#CBCBCB"/>
<path d="M66.5506 87.9238C66.5571 87.9527 66.5614 87.982 66.5634 88.0115L68.8595 89.3362L69.4176 89.0149L70.0126 89.7939L68.8186 90.6449L66.1991 88.5782C66.0922 88.6177 65.9759 88.6238 65.8655 88.5956C65.7551 88.5674 65.656 88.5063 65.5812 88.4203C65.5064 88.3344 65.4595 88.2277 65.4468 88.1145C65.4342 88.0013 65.4562 87.8869 65.5101 87.7865C65.5641 87.6862 65.6472 87.6046 65.7486 87.5527C65.85 87.5007 65.9648 87.4809 66.0778 87.4958C66.1907 87.5107 66.2965 87.5596 66.3809 87.6361C66.4654 87.7126 66.5245 87.8129 66.5506 87.9238Z" fill="#FFB7B7"/>
<path d="M68.9408 89.2235C68.937 89.1878 68.9412 89.1517 68.9532 89.1179C68.9651 89.0841 68.9845 89.0535 69.0099 89.0282L70.1786 87.8592C70.2944 87.7434 70.4489 87.6745 70.6125 87.666C70.776 87.6574 70.9369 87.7096 71.0642 87.8127C71.1915 87.9157 71.2761 88.0622 71.3018 88.224C71.3274 88.3857 71.2923 88.5512 71.2032 88.6886L70.3709 89.9711C70.3361 90.0246 70.2816 90.062 70.2192 90.0753C70.1568 90.0886 70.0917 90.0766 70.0382 90.0419L69.0491 89.4C69.019 89.3806 68.9937 89.3546 68.9749 89.324C68.9562 89.2935 68.9445 89.2591 68.9408 89.2235Z" fill="#3F3D56"/>
<path d="M53.0425 77.8438C53.0014 77.8437 52.9619 77.8281 52.9319 77.8001C52.9018 77.7721 52.8836 77.7337 52.8807 77.6928C52.7745 76.2503 52.1276 74.9011 51.0694 73.9152C50.0112 72.9293 48.6198 72.3794 47.1735 72.3755C47.0004 72.3755 46.8186 72.3843 46.6331 72.4016C46.602 72.4045 46.5708 72.3985 46.5431 72.3841C46.5155 72.3698 46.4925 72.3477 46.477 72.3207C45.8127 71.1578 44.8206 70.2163 43.6246 69.6137C42.4286 69.0111 41.0816 68.7741 39.7517 68.9323C38.4218 69.0905 37.168 69.6368 36.1467 70.5031C35.1253 71.3694 34.3817 72.5174 34.0087 73.8037C33.9988 73.8382 33.9778 73.8684 33.9489 73.8896C33.92 73.9108 33.8848 73.9218 33.849 73.9208L33.8058 73.9195C33.7834 73.9188 33.761 73.918 33.7383 73.918C32.6413 73.9214 31.5785 74.2998 30.7262 74.9905C29.8738 75.6811 29.2833 76.6424 29.0524 77.7149C29.0447 77.7513 29.0247 77.784 28.9958 77.8075C28.9669 77.8309 28.9308 77.8438 28.8935 77.8438H18.0164C17.995 77.8438 17.9739 77.8397 17.9541 77.8315C17.9343 77.8234 17.9164 77.8115 17.9013 77.7964C17.8861 77.7813 17.8741 77.7634 17.8659 77.7436C17.8577 77.7239 17.8535 77.7027 17.8535 77.6814C17.8535 77.66 17.8577 77.6389 17.8659 77.6191C17.8741 77.5994 17.8861 77.5815 17.9013 77.5664C17.9164 77.5513 17.9343 77.5394 17.9541 77.5312C17.9739 77.5231 17.995 77.519 18.0164 77.519H28.7636C29.0341 76.4035 29.6705 75.4107 30.5712 74.6992C31.4719 73.9876 32.5849 73.5983 33.7327 73.5932C34.1413 72.2714 34.925 71.0967 35.9885 70.2118C37.0521 69.3269 38.3497 68.77 39.7237 68.6086C41.0977 68.4472 42.4891 68.6883 43.7286 69.3027C44.9682 69.9171 46.0028 70.8783 46.7065 72.0695C46.8662 72.057 47.0229 72.0507 47.1735 72.0507C48.7019 72.0549 50.1723 72.6361 51.2906 73.678C52.4089 74.7199 53.0925 76.1457 53.2046 77.67C53.2061 77.6913 53.2034 77.7126 53.1966 77.7329C53.1899 77.7531 53.1792 77.7718 53.1652 77.7879C53.1512 77.804 53.1342 77.8172 53.1151 77.8267C53.096 77.8362 53.0753 77.8419 53.054 77.8434C53.0501 77.8436 53.0463 77.8438 53.0425 77.8438Z" fill="#CBCBCB"/>
<path d="M51.11 79.9256H24.4832C24.4618 79.9256 24.4406 79.9215 24.4209 79.9133C24.4011 79.9052 24.3832 79.8933 24.368 79.8782C24.3529 79.8631 24.3409 79.8452 24.3327 79.8255C24.3245 79.8057 24.3203 79.7846 24.3203 79.7632C24.3203 79.7418 24.3245 79.7207 24.3327 79.7009C24.3409 79.6812 24.3529 79.6633 24.368 79.6482C24.3832 79.6331 24.4011 79.6212 24.4209 79.613C24.4406 79.6049 24.4618 79.6008 24.4832 79.6008H51.11C51.1531 79.6008 51.1944 79.6179 51.2248 79.6484C51.2553 79.6788 51.2724 79.7201 51.2724 79.7632C51.2724 79.8063 51.2553 79.8476 51.2248 79.878C51.1944 79.9085 51.1531 79.9256 51.11 79.9256Z" fill="#CBCBCB"/>
<path d="M30.9774 82.2798H22.0476C22.0263 82.2799 22.0051 82.2757 21.9853 82.2676C21.9656 82.2595 21.9476 82.2475 21.9325 82.2324C21.9174 82.2174 21.9054 82.1994 21.8972 82.1797C21.889 82.16 21.8848 82.1388 21.8848 82.1174C21.8848 82.0961 21.889 82.0749 21.8972 82.0552C21.9054 82.0355 21.9174 82.0175 21.9325 82.0025C21.9476 81.9874 21.9656 81.9754 21.9853 81.9673C22.0051 81.9592 22.0263 81.955 22.0476 81.9551H30.9774C30.9987 81.955 31.0199 81.9592 31.0396 81.9673C31.0594 81.9754 31.0774 81.9874 31.0925 82.0025C31.1076 82.0175 31.1196 82.0355 31.1278 82.0552C31.136 82.0749 31.1402 82.0961 31.1402 82.1174C31.1402 82.1388 31.136 82.16 31.1278 82.1797C31.1196 82.1994 31.1076 82.2174 31.0925 82.2324C31.0774 82.2475 31.0594 82.2595 31.0396 82.2676C31.0199 82.2757 30.9987 82.2799 30.9774 82.2798Z" fill="#CBCBCB"/>
</svg>
